<svg width="29" height="28" viewBox="0 0 29 28" fill="none" xmlns="http://www.w3.org/2000/svg">
<path d="M10.525 11.375C10.525 11.1429 10.6172 10.9204 10.7813 10.7563C10.9454 10.5922 11.168 10.5 11.4 10.5H18.4C18.6321 10.5 18.8546 10.5922 19.0187 10.7563C19.1828 10.9204 19.275 11.1429 19.275 11.375C19.275 11.6071 19.1828 11.8296 19.0187 11.9937C18.8546 12.1578 18.6321 12.25 18.4 12.25H11.4C11.168 12.25 10.9454 12.1578 10.7813 11.9937C10.6172 11.8296 10.525 11.6071 10.525 11.375ZM11.4 15.75H18.4C18.6321 15.75 18.8546 15.6578 19.0187 15.4937C19.1828 15.3296 19.275 15.1071 19.275 14.875C19.275 14.6429 19.1828 14.4204 19.0187 14.2563C18.8546 14.0922 18.6321 14 18.4 14H11.4C11.168 14 10.9454 14.0922 10.7813 14.2563C10.6172 14.4204 10.525 14.6429 10.525 14.875C10.525 15.1071 10.6172 15.3296 10.7813 15.4937C10.9454 15.6578 11.168 15.75 11.4 15.75ZM26.275 6.125V20.125C26.275 20.5891 26.0906 21.0342 25.7625 21.3624C25.4343 21.6906 24.9891 21.875 24.525 21.875H17.9155L16.4192 24.4934C16.2661 24.7612 16.045 24.9837 15.7782 25.1385C15.5114 25.2933 15.2085 25.3748 14.9 25.3748C14.5916 25.3748 14.2886 25.2933 14.0218 25.1385C13.755 24.9837 13.5339 24.7612 13.3808 24.4934L11.8845 21.875H5.27502C4.81089 21.875 4.36577 21.6906 4.03758 21.3624C3.70939 21.0342 3.52502 20.5891 3.52502 20.125V6.125C3.52502 5.66087 3.70939 5.21575 4.03758 4.88756C4.36577 4.55937 4.81089 4.375 5.27502 4.375H24.525C24.9891 4.375 25.4343 4.55937 25.7625 4.88756C26.0906 5.21575 26.275 5.66087 26.275 6.125ZM24.525 6.125H5.27502V20.125H12.392C12.547 20.1236 12.6995 20.1634 12.834 20.2403C12.9685 20.3171 13.0802 20.4283 13.1577 20.5625L14.9077 23.625L16.6577 20.5625C16.7351 20.4283 16.8468 20.3171 16.9813 20.2403C17.1159 20.1634 17.2684 20.1236 17.4233 20.125H24.525V6.125Z" fill="currentColor"/>
</svg>
