<svg width="29" height="28" viewBox="0 0 29 28" fill="none" xmlns="http://www.w3.org/2000/svg">
<path d="M24.687 11.8869L15.937 3.13688C15.6089 2.80894 15.1639 2.62473 14.7 2.62473C14.2361 2.62473 13.7911 2.80894 13.463 3.13688L4.71296 11.8869C4.54967 12.049 4.42023 12.2419 4.33217 12.4544C4.2441 12.667 4.19917 12.8949 4.19999 13.125V23.625C4.19999 23.8571 4.29218 24.0796 4.45627 24.2437C4.62037 24.4078 4.84293 24.5 5.07499 24.5H12.075C12.3071 24.5 12.5296 24.4078 12.6937 24.2437C12.8578 24.0796 12.95 23.8571 12.95 23.625V17.5H16.45V23.625C16.45 23.8571 16.5422 24.0796 16.7063 24.2437C16.8704 24.4078 17.0929 24.5 17.325 24.5H24.325C24.5571 24.5 24.7796 24.4078 24.9437 24.2437C25.1078 24.0796 25.2 23.8571 25.2 23.625V13.125C25.2008 12.8949 25.1559 12.667 25.0678 12.4544C24.9798 12.2419 24.8503 12.049 24.687 11.8869ZM23.45 22.75H18.2V16.625C18.2 16.3929 18.1078 16.1704 17.9437 16.0063C17.7796 15.8422 17.5571 15.75 17.325 15.75H12.075C11.8429 15.75 11.6204 15.8422 11.4563 16.0063C11.2922 16.1704 11.2 16.3929 11.2 16.625V22.75H5.94999V13.125L14.7 4.37501L23.45 13.125V22.75Z" fill="currentColor"/>
</svg>
