<svg width="29" height="28" viewBox="0 0 29 28" fill="none" xmlns="http://www.w3.org/2000/svg">
<path d="M25.2191 23.8809L19.7427 18.4056C21.3299 16.5 22.1214 14.0558 21.9525 11.5814C21.7836 9.10709 20.6672 6.79313 18.8357 5.12091C17.0041 3.4487 14.5984 2.54697 12.1189 2.60332C9.63944 2.65967 7.27715 3.66976 5.52345 5.42345C3.76975 7.17715 2.75967 9.53944 2.70332 12.0189C2.64697 14.4984 3.54869 16.9041 5.22091 18.7357C6.89313 20.5672 9.20709 21.6836 11.6814 21.8525C14.1558 22.0214 16.6 21.2299 18.5056 19.6427L23.9809 25.1191C24.0622 25.2004 24.1588 25.2649 24.265 25.3088C24.3712 25.3528 24.485 25.3755 24.6 25.3755C24.715 25.3755 24.8288 25.3528 24.935 25.3088C25.0413 25.2649 25.1378 25.2004 25.2191 25.1191C25.3004 25.0378 25.3649 24.9413 25.4088 24.835C25.4528 24.7288 25.4755 24.615 25.4755 24.5C25.4755 24.385 25.4528 24.2712 25.4088 24.165C25.3649 24.0588 25.3004 23.9622 25.2191 23.8809ZM4.475 12.25C4.475 10.6925 4.93686 9.16993 5.80218 7.87489C6.6675 6.57985 7.8974 5.57049 9.33637 4.97445C10.7753 4.37841 12.3587 4.22246 13.8863 4.52632C15.4139 4.83018 16.8171 5.5802 17.9185 6.68154C19.0198 7.78288 19.7698 9.18607 20.0737 10.7137C20.3775 12.2413 20.2216 13.8247 19.6256 15.2636C19.0295 16.7026 18.0202 17.9325 16.7251 18.7978C15.4301 19.6631 13.9075 20.125 12.35 20.125C10.2621 20.1227 8.26044 19.2923 6.7841 17.8159C5.30775 16.3396 4.47732 14.3379 4.475 12.25Z" fill="currentColor"/>
</svg>
